<mxfile host="app.diagrams.net" agent="Mozilla/5.0 (Windows NT 10.0; Win64; x64; rv:129.0) Gecko/20100101 Firefox/129.0" version="24.7.10">
  <diagram id="C5RBs43oDa-KdzZeNtuy" name="Page-1">
    <mxGraphModel dx="1638" dy="2284" grid="1" gridSize="10" guides="1" tooltips="1" connect="1" arrows="1" fold="1" page="1" pageScale="1" pageWidth="827" pageHeight="1169" math="0" shadow="0">
      <root>
        <mxCell id="WIyWlLk6GJQsqaUBKTNV-0" />
        <mxCell id="WIyWlLk6GJQsqaUBKTNV-1" parent="WIyWlLk6GJQsqaUBKTNV-0" />
        <mxCell id="_yIVgCg8v0xFMffthoLa-71" style="edgeStyle=orthogonalEdgeStyle;shape=connector;rounded=0;orthogonalLoop=1;jettySize=auto;html=1;exitX=0.5;exitY=0;exitDx=0;exitDy=0;entryX=0;entryY=0.5;entryDx=0;entryDy=0;strokeColor=default;align=center;verticalAlign=middle;fontFamily=Helvetica;fontSize=11;fontColor=default;labelBackgroundColor=default;endArrow=none;endFill=0;" edge="1" parent="WIyWlLk6GJQsqaUBKTNV-1" source="_yIVgCg8v0xFMffthoLa-20" target="_yIVgCg8v0xFMffthoLa-27">
          <mxGeometry relative="1" as="geometry" />
        </mxCell>
        <mxCell id="_yIVgCg8v0xFMffthoLa-20" value="ФИО" style="ellipse;whiteSpace=wrap;html=1;align=center;fontFamily=Helvetica;fontSize=11;fontColor=default;labelBackgroundColor=default;" vertex="1" parent="WIyWlLk6GJQsqaUBKTNV-1">
          <mxGeometry x="-778" y="-894" width="100" height="40" as="geometry" />
        </mxCell>
        <mxCell id="_yIVgCg8v0xFMffthoLa-66" style="edgeStyle=orthogonalEdgeStyle;shape=connector;rounded=0;orthogonalLoop=1;jettySize=auto;html=1;exitX=0.5;exitY=1;exitDx=0;exitDy=0;entryX=0;entryY=0.25;entryDx=0;entryDy=0;strokeColor=default;align=center;verticalAlign=middle;fontFamily=Helvetica;fontSize=11;fontColor=default;labelBackgroundColor=default;endArrow=none;endFill=0;" edge="1" parent="WIyWlLk6GJQsqaUBKTNV-1" source="_yIVgCg8v0xFMffthoLa-24" target="_yIVgCg8v0xFMffthoLa-27">
          <mxGeometry relative="1" as="geometry" />
        </mxCell>
        <mxCell id="_yIVgCg8v0xFMffthoLa-24" value="№ паспорта " style="ellipse;whiteSpace=wrap;html=1;align=center;fontStyle=4;fontFamily=Helvetica;fontSize=11;fontColor=default;labelBackgroundColor=default;" vertex="1" parent="WIyWlLk6GJQsqaUBKTNV-1">
          <mxGeometry x="-778" y="-1030" width="100" height="40" as="geometry" />
        </mxCell>
        <mxCell id="_yIVgCg8v0xFMffthoLa-35" style="edgeStyle=none;shape=connector;rounded=0;orthogonalLoop=1;jettySize=auto;html=1;exitX=0.5;exitY=1;exitDx=0;exitDy=0;entryX=0.5;entryY=0;entryDx=0;entryDy=0;strokeColor=default;align=center;verticalAlign=middle;fontFamily=Helvetica;fontSize=11;fontColor=default;labelBackgroundColor=default;endArrow=none;endFill=0;" edge="1" parent="WIyWlLk6GJQsqaUBKTNV-1" source="_yIVgCg8v0xFMffthoLa-26" target="_yIVgCg8v0xFMffthoLa-33">
          <mxGeometry relative="1" as="geometry" />
        </mxCell>
        <mxCell id="_yIVgCg8v0xFMffthoLa-61" style="edgeStyle=orthogonalEdgeStyle;shape=connector;rounded=0;orthogonalLoop=1;jettySize=auto;html=1;exitX=1;exitY=0.5;exitDx=0;exitDy=0;entryX=0;entryY=0.5;entryDx=0;entryDy=0;strokeColor=default;align=center;verticalAlign=middle;fontFamily=Helvetica;fontSize=11;fontColor=default;labelBackgroundColor=default;endArrow=none;endFill=0;" edge="1" parent="WIyWlLk6GJQsqaUBKTNV-1" source="_yIVgCg8v0xFMffthoLa-26" target="_yIVgCg8v0xFMffthoLa-48">
          <mxGeometry relative="1" as="geometry" />
        </mxCell>
        <mxCell id="_yIVgCg8v0xFMffthoLa-26" value="Обучается" style="shape=rhombus;perimeter=rhombusPerimeter;whiteSpace=wrap;html=1;align=center;fontFamily=Helvetica;fontSize=11;fontColor=default;labelBackgroundColor=default;" vertex="1" parent="WIyWlLk6GJQsqaUBKTNV-1">
          <mxGeometry x="-658" y="-884" width="120" height="60" as="geometry" />
        </mxCell>
        <mxCell id="_yIVgCg8v0xFMffthoLa-34" style="edgeStyle=none;shape=connector;rounded=0;orthogonalLoop=1;jettySize=auto;html=1;exitX=0.5;exitY=1;exitDx=0;exitDy=0;entryX=0.5;entryY=0;entryDx=0;entryDy=0;strokeColor=default;align=center;verticalAlign=middle;fontFamily=Helvetica;fontSize=11;fontColor=default;labelBackgroundColor=default;endArrow=none;endFill=0;" edge="1" parent="WIyWlLk6GJQsqaUBKTNV-1" source="_yIVgCg8v0xFMffthoLa-27" target="_yIVgCg8v0xFMffthoLa-26">
          <mxGeometry relative="1" as="geometry" />
        </mxCell>
        <mxCell id="_yIVgCg8v0xFMffthoLa-44" value="&lt;div&gt;&lt;br&gt;&lt;/div&gt;" style="edgeStyle=none;shape=connector;rounded=0;orthogonalLoop=1;jettySize=auto;html=1;exitX=1;exitY=0.5;exitDx=0;exitDy=0;entryX=0;entryY=0.5;entryDx=0;entryDy=0;strokeColor=default;align=center;verticalAlign=middle;fontFamily=Helvetica;fontSize=11;fontColor=default;labelBackgroundColor=default;endArrow=none;endFill=0;" edge="1" parent="WIyWlLk6GJQsqaUBKTNV-1" source="_yIVgCg8v0xFMffthoLa-27" target="_yIVgCg8v0xFMffthoLa-43">
          <mxGeometry relative="1" as="geometry" />
        </mxCell>
        <mxCell id="_yIVgCg8v0xFMffthoLa-45" value="*" style="edgeLabel;html=1;align=center;verticalAlign=middle;resizable=0;points=[];fontFamily=Helvetica;fontSize=11;fontColor=default;labelBackgroundColor=default;rotation=90;" vertex="1" connectable="0" parent="_yIVgCg8v0xFMffthoLa-44">
          <mxGeometry x="0.0239" y="-1" relative="1" as="geometry">
            <mxPoint as="offset" />
          </mxGeometry>
        </mxCell>
        <mxCell id="_yIVgCg8v0xFMffthoLa-52" value="&lt;div&gt;*&lt;/div&gt;&lt;div&gt;&lt;br&gt;&lt;/div&gt;" style="edgeLabel;html=1;align=center;verticalAlign=middle;resizable=0;points=[];fontFamily=Helvetica;fontSize=11;fontColor=default;labelBackgroundColor=default;" vertex="1" connectable="0" parent="_yIVgCg8v0xFMffthoLa-44">
          <mxGeometry x="0.0399" y="-2" relative="1" as="geometry">
            <mxPoint as="offset" />
          </mxGeometry>
        </mxCell>
        <mxCell id="_yIVgCg8v0xFMffthoLa-27" value="Студент" style="rounded=1;arcSize=10;whiteSpace=wrap;html=1;align=center;fontFamily=Helvetica;fontSize=11;fontColor=default;labelBackgroundColor=default;" vertex="1" parent="WIyWlLk6GJQsqaUBKTNV-1">
          <mxGeometry x="-648" y="-964" width="100" height="40" as="geometry" />
        </mxCell>
        <mxCell id="_yIVgCg8v0xFMffthoLa-65" style="edgeStyle=orthogonalEdgeStyle;shape=connector;rounded=0;orthogonalLoop=1;jettySize=auto;html=1;exitX=1;exitY=0.75;exitDx=0;exitDy=0;entryX=0.5;entryY=0;entryDx=0;entryDy=0;strokeColor=default;align=center;verticalAlign=middle;fontFamily=Helvetica;fontSize=11;fontColor=default;labelBackgroundColor=default;endArrow=none;endFill=0;" edge="1" parent="WIyWlLk6GJQsqaUBKTNV-1" source="_yIVgCg8v0xFMffthoLa-28" target="_yIVgCg8v0xFMffthoLa-37">
          <mxGeometry relative="1" as="geometry" />
        </mxCell>
        <mxCell id="_yIVgCg8v0xFMffthoLa-72" style="edgeStyle=orthogonalEdgeStyle;shape=connector;rounded=0;orthogonalLoop=1;jettySize=auto;html=1;exitX=0.5;exitY=1;exitDx=0;exitDy=0;entryX=0.5;entryY=0;entryDx=0;entryDy=0;strokeColor=default;align=center;verticalAlign=middle;fontFamily=Helvetica;fontSize=11;fontColor=default;labelBackgroundColor=default;endArrow=none;endFill=0;" edge="1" parent="WIyWlLk6GJQsqaUBKTNV-1" source="_yIVgCg8v0xFMffthoLa-28" target="_yIVgCg8v0xFMffthoLa-60">
          <mxGeometry relative="1" as="geometry" />
        </mxCell>
        <mxCell id="_yIVgCg8v0xFMffthoLa-77" style="edgeStyle=orthogonalEdgeStyle;shape=connector;rounded=0;orthogonalLoop=1;jettySize=auto;html=1;exitX=0.75;exitY=1;exitDx=0;exitDy=0;entryX=0.5;entryY=0;entryDx=0;entryDy=0;strokeColor=default;align=center;verticalAlign=middle;fontFamily=Helvetica;fontSize=11;fontColor=default;labelBackgroundColor=default;endArrow=none;endFill=0;" edge="1" parent="WIyWlLk6GJQsqaUBKTNV-1" source="_yIVgCg8v0xFMffthoLa-28" target="_yIVgCg8v0xFMffthoLa-75">
          <mxGeometry relative="1" as="geometry" />
        </mxCell>
        <mxCell id="_yIVgCg8v0xFMffthoLa-28" value="Преподаватель" style="rounded=1;arcSize=10;whiteSpace=wrap;html=1;align=center;fontFamily=Helvetica;fontSize=11;fontColor=default;labelBackgroundColor=default;" vertex="1" parent="WIyWlLk6GJQsqaUBKTNV-1">
          <mxGeometry x="-278" y="-965" width="100" height="40" as="geometry" />
        </mxCell>
        <mxCell id="_yIVgCg8v0xFMffthoLa-33" value="Группа" style="whiteSpace=wrap;html=1;align=center;fontFamily=Helvetica;fontSize=11;fontColor=default;labelBackgroundColor=default;" vertex="1" parent="WIyWlLk6GJQsqaUBKTNV-1">
          <mxGeometry x="-648" y="-764" width="100" height="40" as="geometry" />
        </mxCell>
        <mxCell id="_yIVgCg8v0xFMffthoLa-37" value="ФИО" style="ellipse;whiteSpace=wrap;html=1;align=center;fontFamily=Helvetica;fontSize=11;fontColor=default;labelBackgroundColor=default;" vertex="1" parent="WIyWlLk6GJQsqaUBKTNV-1">
          <mxGeometry x="-129" y="-921" width="100" height="40" as="geometry" />
        </mxCell>
        <mxCell id="_yIVgCg8v0xFMffthoLa-64" style="edgeStyle=orthogonalEdgeStyle;shape=connector;rounded=0;orthogonalLoop=1;jettySize=auto;html=1;exitX=0.5;exitY=1;exitDx=0;exitDy=0;entryX=1;entryY=0.5;entryDx=0;entryDy=0;strokeColor=default;align=center;verticalAlign=middle;fontFamily=Helvetica;fontSize=11;fontColor=default;labelBackgroundColor=default;endArrow=none;endFill=0;" edge="1" parent="WIyWlLk6GJQsqaUBKTNV-1" source="_yIVgCg8v0xFMffthoLa-39" target="_yIVgCg8v0xFMffthoLa-28">
          <mxGeometry relative="1" as="geometry" />
        </mxCell>
        <mxCell id="_yIVgCg8v0xFMffthoLa-39" value="№ паспорта " style="ellipse;whiteSpace=wrap;html=1;align=center;fontStyle=4;fontFamily=Helvetica;fontSize=11;fontColor=default;labelBackgroundColor=default;" vertex="1" parent="WIyWlLk6GJQsqaUBKTNV-1">
          <mxGeometry x="-158" y="-1039" width="100" height="40" as="geometry" />
        </mxCell>
        <mxCell id="_yIVgCg8v0xFMffthoLa-46" style="edgeStyle=none;shape=connector;rounded=0;orthogonalLoop=1;jettySize=auto;html=1;exitX=1;exitY=0.5;exitDx=0;exitDy=0;entryX=0;entryY=0.5;entryDx=0;entryDy=0;strokeColor=default;align=center;verticalAlign=middle;fontFamily=Helvetica;fontSize=11;fontColor=default;labelBackgroundColor=default;endArrow=none;endFill=0;" edge="1" parent="WIyWlLk6GJQsqaUBKTNV-1" source="_yIVgCg8v0xFMffthoLa-43" target="_yIVgCg8v0xFMffthoLa-28">
          <mxGeometry relative="1" as="geometry" />
        </mxCell>
        <mxCell id="_yIVgCg8v0xFMffthoLa-47" value="*" style="edgeLabel;html=1;align=center;verticalAlign=middle;resizable=0;points=[];fontFamily=Helvetica;fontSize=11;fontColor=default;labelBackgroundColor=default;" vertex="1" connectable="0" parent="_yIVgCg8v0xFMffthoLa-46">
          <mxGeometry x="-0.0394" y="-3" relative="1" as="geometry">
            <mxPoint x="1" as="offset" />
          </mxGeometry>
        </mxCell>
        <mxCell id="_yIVgCg8v0xFMffthoLa-51" value="&lt;div&gt;*&lt;/div&gt;&lt;div&gt;&lt;br&gt;&lt;/div&gt;" style="edgeLabel;html=1;align=center;verticalAlign=middle;resizable=0;points=[];fontFamily=Helvetica;fontSize=11;fontColor=default;labelBackgroundColor=default;" vertex="1" connectable="0" parent="_yIVgCg8v0xFMffthoLa-46">
          <mxGeometry x="-0.0079" y="-4" relative="1" as="geometry">
            <mxPoint x="1" as="offset" />
          </mxGeometry>
        </mxCell>
        <mxCell id="_yIVgCg8v0xFMffthoLa-49" style="edgeStyle=none;shape=connector;rounded=0;orthogonalLoop=1;jettySize=auto;html=1;exitX=0.5;exitY=1;exitDx=0;exitDy=0;entryX=0.5;entryY=0;entryDx=0;entryDy=0;strokeColor=default;align=center;verticalAlign=middle;fontFamily=Helvetica;fontSize=11;fontColor=default;labelBackgroundColor=default;endArrow=none;endFill=0;" edge="1" parent="WIyWlLk6GJQsqaUBKTNV-1" source="_yIVgCg8v0xFMffthoLa-43" target="_yIVgCg8v0xFMffthoLa-48">
          <mxGeometry relative="1" as="geometry" />
        </mxCell>
        <mxCell id="_yIVgCg8v0xFMffthoLa-50" value="&lt;div&gt;*&lt;/div&gt;&lt;div&gt;&lt;br&gt;&lt;/div&gt;" style="edgeLabel;html=1;align=center;verticalAlign=middle;resizable=0;points=[];fontFamily=Helvetica;fontSize=11;fontColor=default;labelBackgroundColor=default;" vertex="1" connectable="0" parent="_yIVgCg8v0xFMffthoLa-49">
          <mxGeometry x="-0.098" relative="1" as="geometry">
            <mxPoint as="offset" />
          </mxGeometry>
        </mxCell>
        <mxCell id="_yIVgCg8v0xFMffthoLa-43" value="Ведомость" style="shape=rhombus;perimeter=rhombusPerimeter;whiteSpace=wrap;html=1;align=center;fontFamily=Helvetica;fontSize=11;fontColor=default;labelBackgroundColor=default;" vertex="1" parent="WIyWlLk6GJQsqaUBKTNV-1">
          <mxGeometry x="-461.5" y="-975" width="120" height="60" as="geometry" />
        </mxCell>
        <mxCell id="_yIVgCg8v0xFMffthoLa-76" style="edgeStyle=orthogonalEdgeStyle;shape=connector;rounded=0;orthogonalLoop=1;jettySize=auto;html=1;exitX=0.5;exitY=1;exitDx=0;exitDy=0;entryX=0.5;entryY=0;entryDx=0;entryDy=0;strokeColor=default;align=center;verticalAlign=middle;fontFamily=Helvetica;fontSize=11;fontColor=default;labelBackgroundColor=default;endArrow=none;endFill=0;" edge="1" parent="WIyWlLk6GJQsqaUBKTNV-1" source="_yIVgCg8v0xFMffthoLa-48" target="_yIVgCg8v0xFMffthoLa-73">
          <mxGeometry relative="1" as="geometry" />
        </mxCell>
        <mxCell id="_yIVgCg8v0xFMffthoLa-48" value="Дисцеплина" style="whiteSpace=wrap;html=1;align=center;fontFamily=Helvetica;fontSize=11;fontColor=default;labelBackgroundColor=default;" vertex="1" parent="WIyWlLk6GJQsqaUBKTNV-1">
          <mxGeometry x="-451.5" y="-864" width="100" height="40" as="geometry" />
        </mxCell>
        <mxCell id="_yIVgCg8v0xFMffthoLa-68" style="edgeStyle=orthogonalEdgeStyle;shape=connector;rounded=0;orthogonalLoop=1;jettySize=auto;html=1;exitX=0.5;exitY=1;exitDx=0;exitDy=0;entryX=0.5;entryY=0;entryDx=0;entryDy=0;strokeColor=default;align=center;verticalAlign=middle;fontFamily=Helvetica;fontSize=11;fontColor=default;labelBackgroundColor=default;endArrow=none;endFill=0;" edge="1" parent="WIyWlLk6GJQsqaUBKTNV-1" source="_yIVgCg8v0xFMffthoLa-53" target="_yIVgCg8v0xFMffthoLa-27">
          <mxGeometry relative="1" as="geometry" />
        </mxCell>
        <mxCell id="_yIVgCg8v0xFMffthoLa-69" value="*" style="edgeLabel;html=1;align=center;verticalAlign=middle;resizable=0;points=[];fontFamily=Helvetica;fontSize=11;fontColor=default;labelBackgroundColor=default;" vertex="1" connectable="0" parent="_yIVgCg8v0xFMffthoLa-68">
          <mxGeometry x="0.5134" y="1" relative="1" as="geometry">
            <mxPoint as="offset" />
          </mxGeometry>
        </mxCell>
        <mxCell id="_yIVgCg8v0xFMffthoLa-70" value="1" style="edgeLabel;html=1;align=center;verticalAlign=middle;resizable=0;points=[];fontFamily=Helvetica;fontSize=11;fontColor=default;labelBackgroundColor=default;" vertex="1" connectable="0" parent="_yIVgCg8v0xFMffthoLa-68">
          <mxGeometry x="-0.548" y="1" relative="1" as="geometry">
            <mxPoint as="offset" />
          </mxGeometry>
        </mxCell>
        <mxCell id="_yIVgCg8v0xFMffthoLa-53" value="Директор" style="whiteSpace=wrap;html=1;align=center;fontFamily=Helvetica;fontSize=11;fontColor=default;labelBackgroundColor=default;" vertex="1" parent="WIyWlLk6GJQsqaUBKTNV-1">
          <mxGeometry x="-648" y="-1140" width="100" height="40" as="geometry" />
        </mxCell>
        <mxCell id="_yIVgCg8v0xFMffthoLa-62" style="edgeStyle=orthogonalEdgeStyle;shape=connector;rounded=0;orthogonalLoop=1;jettySize=auto;html=1;exitX=0;exitY=0.5;exitDx=0;exitDy=0;entryX=1;entryY=0.5;entryDx=0;entryDy=0;strokeColor=default;align=center;verticalAlign=middle;fontFamily=Helvetica;fontSize=11;fontColor=default;labelBackgroundColor=default;endArrow=none;endFill=0;" edge="1" parent="WIyWlLk6GJQsqaUBKTNV-1" source="_yIVgCg8v0xFMffthoLa-60" target="_yIVgCg8v0xFMffthoLa-48">
          <mxGeometry relative="1" as="geometry" />
        </mxCell>
        <mxCell id="_yIVgCg8v0xFMffthoLa-60" value="Нагрузка" style="shape=rhombus;perimeter=rhombusPerimeter;whiteSpace=wrap;html=1;align=center;fontFamily=Helvetica;fontSize=11;fontColor=default;labelBackgroundColor=default;" vertex="1" parent="WIyWlLk6GJQsqaUBKTNV-1">
          <mxGeometry x="-288" y="-884" width="120" height="60" as="geometry" />
        </mxCell>
        <mxCell id="_yIVgCg8v0xFMffthoLa-73" value="Вид заняий" style="whiteSpace=wrap;html=1;align=center;fontFamily=Helvetica;fontSize=11;fontColor=default;labelBackgroundColor=default;" vertex="1" parent="WIyWlLk6GJQsqaUBKTNV-1">
          <mxGeometry x="-451" y="-764" width="100" height="40" as="geometry" />
        </mxCell>
        <mxCell id="_yIVgCg8v0xFMffthoLa-74" value="Вид" style="ellipse;whiteSpace=wrap;html=1;align=center;fontFamily=Helvetica;fontSize=11;fontColor=default;labelBackgroundColor=default;" vertex="1" parent="WIyWlLk6GJQsqaUBKTNV-1">
          <mxGeometry x="-278" y="-764" width="100" height="40" as="geometry" />
        </mxCell>
        <mxCell id="_yIVgCg8v0xFMffthoLa-75" value="Должность" style="whiteSpace=wrap;html=1;align=center;fontFamily=Helvetica;fontSize=11;fontColor=default;labelBackgroundColor=default;" vertex="1" parent="WIyWlLk6GJQsqaUBKTNV-1">
          <mxGeometry x="-130" y="-824" width="100" height="40" as="geometry" />
        </mxCell>
      </root>
    </mxGraphModel>
  </diagram>
</mxfile>
